<svg id="visual" viewBox="0 0 960 540" width="960" height="540" xmlns="http://www.w3.org/2000/svg" xmlns:xlink="http://www.w3.org/1999/xlink" version="1.1"><path d="M0 395L137 380L274 373L411 324L549 345L686 398L823 333L960 316L960 541L823 541L686 541L549 541L411 541L274 541L137 541L0 541Z" fill="#4062bd"></path><path d="M0 426L137 361L274 376L411 383L549 376L686 429L823 415L960 388L960 541L823 541L686 541L549 541L411 541L274 541L137 541L0 541Z" fill="#7886ce"></path><path d="M0 397L137 455L274 426L411 455L549 418L686 431L823 409L960 430L960 541L823 541L686 541L549 541L411 541L274 541L137 541L0 541Z" fill="#a7addf"></path><path d="M0 466L137 438L274 461L411 488L549 442L686 478L823 441L960 467L960 541L823 541L686 541L549 541L411 541L274 541L137 541L0 541Z" fill="#d3d5ef"></path><path d="M0 515L137 473L274 476L411 487L549 484L686 507L823 516L960 481L960 541L823 541L686 541L549 541L411 541L274 541L137 541L0 541Z" fill="#ffffff"></path></svg>