<?xml version="1.0" encoding="UTF-8"?>
<svg xmlns="http://www.w3.org/2000/svg" version="1.1" width="1063px" height="200px" style="shape-rendering:geometricPrecision; text-rendering:geometricPrecision; image-rendering:optimizeQuality; fill-rule:evenodd; clip-rule:evenodd" xmlns:xlink="http://www.w3.org/1999/xlink">
<g><path style="opacity:0.979" fill="#fefffe" d="M -0.5,197.5 C -0.5,160.167 -0.5,122.833 -0.5,85.5C 14.8333,85.5 30.1667,85.5 45.5,85.5C 45.5,107.5 45.5,129.5 45.5,151.5C 74.1686,151.667 102.835,151.5 131.5,151C 147.46,146.581 152.293,136.748 146,121.5C 141.168,115.44 134.835,112.44 127,112.5C 112.521,113.441 98.0205,113.774 83.5,113.5C 83.6666,96.1635 83.4999,78.8301 83,61.5C 80.3213,54.1552 75.1546,49.6552 67.5,48C 45.8359,47.5 24.1692,47.3334 2.5,47.5C 10.4854,22.3536 27.4854,7.18695 53.5,2C 88.575,-1.7233 113.075,12.4434 127,44.5C 129.357,51.6448 130.524,58.9782 130.5,66.5C 165.269,68.6365 186.769,86.6365 195,120.5C 198.519,161.624 180.352,187.124 140.5,197C 93.5012,197.5 46.5012,197.667 -0.5,197.5 Z"/></g>
<g><path style="opacity:0.954" fill="#fefffe" d="M 263.5,41.5 C 266.238,40.9648 268.072,41.9648 269,44.5C 269.333,61.1667 269.667,77.8333 270,94.5C 288.2,81.7198 307.367,80.2198 327.5,90C 348.896,103.969 358.062,123.802 355,149.5C 348.567,180.099 329.734,196.099 298.5,197.5C 263.518,195.685 244.352,177.352 241,142.5C 240.333,112.833 240.333,83.1667 241,53.5C 241.308,52.6919 241.808,52.0253 242.5,51.5C 249.712,48.3918 256.712,45.0584 263.5,41.5 Z M 294.5,110.5 C 319.198,112.031 329.698,125.031 326,149.5C 317.641,169.259 303.475,175.092 283.5,167C 272.387,159.011 267.887,148.178 270,134.5C 273.461,121.537 281.628,113.537 294.5,110.5 Z"/></g>
<g><path style="opacity:0.969" fill="#fefffe" d="M 538.5,41.5 C 540.262,41.3573 541.929,41.6906 543.5,42.5C 544.667,93.1634 544.833,143.83 544,194.5C 535.579,195.649 527.079,195.816 518.5,195C 518,194.5 517.5,194 517,193.5C 516.333,146.5 516.333,99.5 517,52.5C 524.15,48.6758 531.316,45.0091 538.5,41.5 Z"/></g>
<g><path style="opacity:0.969" fill="#fefffe" d="M 1062.5,43.5 C 1062.5,93.8333 1062.5,144.167 1062.5,194.5C 1053.91,195.636 1045.24,195.802 1036.5,195C 1036,194.5 1035.5,194 1035,193.5C 1034.33,146.5 1034.33,99.5 1035,52.5C 1041.94,48.6156 1049.1,45.1156 1056.5,42C 1058.84,41.2516 1060.84,41.7516 1062.5,43.5 Z"/></g>
<g><path style="opacity:0.957" fill="#fefffe" d="M 685.5,83.5 C 710.671,82.1691 730.171,91.8357 744,112.5C 754.599,134.776 752.933,156.11 739,176.5C 722,194.963 701.167,201.463 676.5,196C 653.003,189.504 638.836,174.337 634,150.5C 631.469,112.879 648.636,90.546 685.5,83.5 Z M 687.5,110.5 C 711.972,110.804 723.472,123.138 722,147.5C 716.057,165.567 703.557,173.067 684.5,170C 667.844,164.531 660.344,153.031 662,135.5C 665.131,121.534 673.631,113.201 687.5,110.5 Z"/></g>
<g><path style="opacity:0.954" fill="#fefffe" d="M 943.5,83.5 C 967.567,82.1162 986.067,91.4495 999,111.5C 1005.1,123.112 1007.44,135.445 1006,148.5C 1005.5,149.667 1004.67,150.5 1003.5,151C 976.5,151.333 949.5,151.667 922.5,152C 933.458,169.211 948.791,174.544 968.5,168C 973.02,165.467 977.52,162.967 982,160.5C 987.301,164.8 992.301,169.466 997,174.5C 997.667,176.5 997.667,178.5 997,180.5C 975.618,198.706 951.785,202.539 925.5,192C 897.029,175.525 887.529,151.358 897,119.5C 905.992,98.9986 921.492,86.9986 943.5,83.5 Z M 943.5,110.5 C 959.082,108.452 970.082,114.452 976.5,128.5C 958.509,129.666 940.509,129.833 922.5,129C 926.26,119.069 933.26,112.903 943.5,110.5 Z"/></g>
<g><path style="opacity:0.953" fill="#fefffe" d="M 382.5,87.5 C 390.507,87.3336 398.507,87.5003 406.5,88C 407,88.5 407.5,89 408,89.5C 408.333,110.5 408.667,131.5 409,152.5C 414.225,166.702 424.392,172.535 439.5,170C 447.667,167.167 453.167,161.667 456,153.5C 457.111,131.867 457.944,110.201 458.5,88.5C 466.785,87.3638 475.118,87.1971 483.5,88C 484,88.5 484.5,89 485,89.5C 485.667,110.833 485.667,132.167 485,153.5C 477.137,186.332 456.303,200.832 422.5,197C 400.192,192.692 386.359,179.525 381,157.5C 379.467,135.524 379.134,113.524 380,91.5C 380.48,89.867 381.313,88.5336 382.5,87.5 Z"/></g>
<g><path style="opacity:0.946" fill="#fefffe" d="M 588.5,87.5 C 597.506,87.3336 606.506,87.5002 615.5,88C 618.082,90.8921 617.916,93.7254 615,96.5C 603.259,110.985 591.759,125.652 580.5,140.5C 593,156.167 605.5,171.833 618,187.5C 619.631,189.955 619.797,192.455 618.5,195C 608.833,195.667 599.167,195.667 589.5,195C 574.775,177.543 560.775,159.543 547.5,141C 560.647,122.697 574.314,104.863 588.5,87.5 Z"/></g>
<g><path style="opacity:0.953" fill="#fefffe" d="M 765.5,87.5 C 774.173,87.3336 782.84,87.5002 791.5,88C 792.308,88.3076 792.975,88.8076 793.5,89.5C 803.333,114.5 813.167,139.5 823,164.5C 832.502,138.674 842.669,113.174 853.5,88C 862.215,87.1959 870.882,87.3626 879.5,88.5C 880.665,91.5352 880.498,94.5352 879,97.5C 866.239,130.185 853.072,162.685 839.5,195C 827.591,195.821 815.757,195.654 804,194.5C 790.205,160.28 776.705,125.946 763.5,91.5C 763.752,89.9271 764.418,88.5938 765.5,87.5 Z"/></g>
</svg>
